<?xml version="1.0" encoding="UTF-8"?>
<!DOCTYPE svg PUBLIC "-//W3C//DTD SVG 1.1//EN" "http://www.w3.org/Graphics/SVG/1.1/DTD/svg11.dtd">
<svg xmlns="http://www.w3.org/2000/svg" version="1.1" width="500px" height="645px" style="shape-rendering:geometricPrecision; text-rendering:geometricPrecision; image-rendering:optimizeQuality; fill-rule:evenodd; clip-rule:evenodd" xmlns:xlink="http://www.w3.org/1999/xlink">
<g><path style="opacity:0.976" fill="#124bbe" d="M 243.5,-0.5 C 259.833,-0.5 276.167,-0.5 292.5,-0.5C 360.854,6.93935 417.188,39.2727 461.5,96.5C 467.166,105.602 472.333,114.269 477,122.5C 477.333,122.167 477.667,121.833 478,121.5C 478.333,123.167 478.667,124.833 479,126.5C 479.333,126.167 479.667,125.833 480,125.5C 482.865,132.428 485.531,139.428 488,146.5C 488.333,146.167 488.667,145.833 489,145.5C 490,149.5 491,153.5 492,157.5C 494.012,159.682 495.012,162.349 495,165.5C 495.333,165.167 495.667,164.833 496,164.5C 497.021,170.334 498.187,176 499.5,181.5C 499.5,184.833 499.5,188.167 499.5,191.5C 497.533,191.739 495.699,191.406 494,190.5C 482.829,158.791 463.329,134.291 435.5,117C 431.786,114.639 427.786,113.139 423.5,112.5C 423.5,111.5 423.5,110.5 423.5,109.5C 412.915,105.493 401.582,101.993 389.5,99C 379.996,98.7945 371.329,97.9612 363.5,96.5C 352.234,97.6786 340.234,99.1786 327.5,101C 323.921,103.294 319.921,104.794 315.5,105.5C 312.692,104.084 309.025,103.084 304.5,102.5C 304.291,101.914 303.957,101.414 303.5,101C 294.578,99.3419 285.578,98.3419 276.5,98C 276.833,97.6667 277.167,97.3333 277.5,97C 271.167,96.3333 264.833,96.3333 258.5,97C 258.833,97.3333 259.167,97.6667 259.5,98C 250.29,98.0062 241.29,99.0062 232.5,101C 229.972,103.057 226.972,104.057 223.5,104C 223.833,104.333 224.167,104.667 224.5,105C 218.715,106.357 213.049,107.857 207.5,109.5C 207.5,110.5 207.5,111.5 207.5,112.5C 205.801,112.34 204.134,112.506 202.5,113C 150.556,143.068 126.056,187.901 129,247.5C 129.333,247.167 129.667,246.833 130,246.5C 130.342,255.578 131.342,264.578 133,273.5C 140.726,299.235 155.226,321.735 176.5,341C 178.169,342.669 180.169,343.502 182.5,343.5C 183.333,345.752 183.333,347.919 182.5,350C 170.267,348.55 157.934,348.217 145.5,349C 145.833,349.333 146.167,349.667 146.5,350C 142.683,350.471 139.017,351.471 135.5,353C 130.141,356.053 125.141,359.553 120.5,363.5C 109.359,374.113 102.693,387.113 100.5,402.5C 97.9122,402.457 95.7456,401.457 94,399.5C 47.0479,347.419 25.7146,285.086 30,212.5C 30.6667,211.833 31.3333,211.167 32,210.5C 32.9567,198.071 34.6234,185.738 37,173.5C 37.3333,173.833 37.6667,174.167 38,174.5C 56.8739,105.994 98.7073,54.9939 163.5,21.5C 170.875,18.4484 178.209,15.6151 185.5,13C 185.167,12.6667 184.833,12.3333 184.5,12C 195.317,9.1888 205.984,6.52213 216.5,4C 216.167,3.66667 215.833,3.33333 215.5,3C 224.98,1.81501 234.313,0.648343 243.5,-0.5 Z"/></g>
<g><path style="opacity:0.97" fill="#124bbe" d="M 320.5,172.5 C 342.869,170.08 362.036,176.746 378,192.5C 395.323,216.873 395.823,241.54 379.5,266.5C 371.3,275.553 361.633,282.387 350.5,287C 347.5,287.333 344.5,287.667 341.5,288C 341.833,288.333 342.167,288.667 342.5,289C 336.167,289.667 329.833,289.667 323.5,289C 323.833,288.667 324.167,288.333 324.5,288C 321.5,287.667 318.5,287.333 315.5,287C 310.785,284.312 305.785,282.146 300.5,280.5C 300.5,279.5 300.5,278.5 300.5,277.5C 298.217,277.392 296.217,276.559 294.5,275C 275.136,255.095 270.303,231.928 280,205.5C 282.959,201.914 285.126,197.914 286.5,193.5C 290.167,192.5 292.5,190.167 293.5,186.5C 296.458,185.021 299.458,183.521 302.5,182C 303.833,181.333 303.833,180.667 302.5,180C 307.041,178.144 312.375,176.478 318.5,175C 319.381,174.292 320.047,173.458 320.5,172.5 Z"/></g>
<g><path style="opacity:0.978" fill="#124bbe" d="M 239.5,644.5 C 233.167,644.5 226.833,644.5 220.5,644.5C 155.558,641.909 99.8911,615.909 53.5,566.5C 30.4273,540.257 13.9273,511.257 4,479.5C 3.66667,479.833 3.33333,480.167 3,480.5C 2.11383,474.971 0.947165,469.638 -0.5,464.5C -0.5,460.5 -0.5,456.5 -0.5,452.5C 1.4672,452.261 3.30054,452.594 5,453.5C 5.79687,457.224 6.79687,460.89 8,464.5C 29.6647,506.507 61.1647,532.174 102.5,541.5C 102.709,542.086 103.043,542.586 103.5,543C 124.5,546.333 145.5,546.333 166.5,543C 169.373,540.908 172.707,539.908 176.5,540C 176.167,539.667 175.833,539.333 175.5,539C 177.833,538.833 180.167,538.667 182.5,538.5C 245.275,555.667 297.942,540.667 340.5,493.5C 346.053,485.916 351.553,477.583 357,468.5C 362.068,456.147 365.568,443.48 367.5,430.5C 369.058,410.769 368.558,391.102 366,371.5C 363.806,369.611 363.306,367.444 364.5,365C 363.975,364.308 363.308,363.808 362.5,363.5C 360.368,355.758 357.535,348.424 354,341.5C 353.667,341.833 353.333,342.167 353,342.5C 351.632,337.589 349.132,333.422 345.5,330C 345.833,329.667 346.167,329.333 346.5,329C 342.029,323.36 337.362,317.86 332.5,312.5C 327.102,306.931 321.268,301.931 315,297.5C 314.51,296.207 314.343,294.873 314.5,293.5C 321.372,294.422 328.538,295.089 336,295.5C 344.782,295.174 353.282,293.674 361.5,291C 362.833,290.333 362.833,289.667 361.5,289C 378.682,281.689 389.682,269.522 394.5,252.5C 395.324,249.215 395.824,245.882 396,242.5C 397.062,241.903 398.228,241.57 399.5,241.5C 401.535,242.204 403.535,242.871 405.5,243.5C 410.059,250.247 414.893,256.914 420,263.5C 426.207,269.651 431.207,277.318 435,286.5C 435.667,287.833 436.333,287.833 437,286.5C 437.333,288.167 437.667,289.833 438,291.5C 438.333,291.167 438.667,290.833 439,290.5C 440.628,295.403 442.628,300.07 445,304.5C 445.333,304.167 445.667,303.833 446,303.5C 451.221,315.817 455.888,328.484 460,341.5C 463.826,356.195 466.159,371.862 467,388.5C 467.419,389.672 468.085,390.672 469,391.5C 469.667,401.833 469.667,412.167 469,422.5C 468.085,423.328 467.419,424.328 467,425.5C 466.159,442.138 463.826,457.805 460,472.5C 457.125,479.634 454.625,486.968 452.5,494.5C 449.535,499.346 447.369,504.679 446,510.5C 445.667,510.167 445.333,509.833 445,509.5C 442.634,513.906 440.634,518.573 439,523.5C 438.667,523.167 438.333,522.833 438,522.5C 437.506,524.134 437.34,525.801 437.5,527.5C 436.5,527.5 435.5,527.5 434.5,527.5C 432.525,532.14 430.525,536.807 428.5,541.5C 427.5,541.5 426.5,541.5 425.5,541.5C 425.649,542.552 425.483,543.552 425,544.5C 386.707,596.523 337.541,628.356 277.5,640C 277.833,640.333 278.167,640.667 278.5,641C 265.37,642.429 252.37,643.596 239.5,644.5 Z"/></g>
<g><path style="opacity:0.97" fill="#124bbe" d="M 160.5,353.5 C 161.449,352.848 162.615,352.514 164,352.5C 169.735,353.986 175.568,354.819 181.5,355C 181.167,355.333 180.833,355.667 180.5,356C 200.921,361.92 214.254,375.087 220.5,395.5C 225.841,420.602 219.507,441.102 201.5,457C 197.868,458.811 194.535,460.978 191.5,463.5C 187.478,465.116 183.478,466.616 179.5,468C 155.765,472.821 135.765,466.654 119.5,449.5C 107.404,433.904 103.738,415.904 108.5,395.5C 116.618,370.106 133.951,356.106 160.5,353.5 Z"/></g>
<g><path style="opacity:0.004" fill="#1044af" d="M 120.5,363.5 C 121.833,364.167 121.833,364.167 120.5,363.5 Z"/></g>
</svg>
